# xmcd
#
# Track frame offsets:
#	150
#	17377
#	38235
#	57062
#	78970
#	96560
#	115467
#	133072
#	155707
#	179290
#	200085
#
# Disc length: 2952 seconds
#
# Revision: 1
# Processed by: cddbd v1.5.1PL0 Copyright (c) Steve Scherf et al.
# Submitted via: CDex 1.50Beta5
#
DISCID=940b860b
DTITLE=江口洋介 - It’s Fine Today
DYEAR=1995
DGENRE=
TTITLE0=It’s Fine Today
TTITLE1=逃げられた天使
TTITLE2=チョット チョット チョット
TTITLE3=Lady
TTITLE4=Daydream
TTITLE5=Funny Day
TTITLE6=I CAN’T STAND IT
TTITLE7=天気雨
TTITLE8=サイレント ムービーの街
TTITLE9=ずっと忘れない
TTITLE10=ディア マチルダ
EXTD=
EXTT0=
EXTT1=
EXTT2=
EXTT3=
EXTT4=
EXTT5=
EXTT6=
EXTT7=
EXTT8=
EXTT9=
EXTT10=
PLAYORDER=
